
<svg width="18px" height="23px" viewBox="0 0 18 23" version="1.1" xmlns="http://www.w3.org/2000/svg" xmlns:xlink="http://www.w3.org/1999/xlink">
    <g id="Symbols" stroke="none" stroke-width="1" fill="none" fill-rule="evenodd">
        <g id="Global-/-Nav" transform="translate(-1343.000000, -29.000000)" fill="#0A0912" fill-rule="nonzero">
            <g id="Icons-/-User" transform="translate(1340.000000, 28.000000)">
                <path d="M12,11.3137085 C16.4575277,11.3137085 20.0710678,14.9272486 20.0710678,19.3847763 C20.0710678,24.6233526 3.92893219,24.6233526 3.92893219,19.3847763 C3.92893219,14.9272486 7.54247233,11.3137085 12,11.3137085 Z M12,13.3137085 C8.64704183,13.3137085 5.92893219,16.0318181 5.92893219,19.3847763 C5.92893219,21.9566859 18.0710678,21.9566859 18.0710678,19.3847763 C18.0710678,16.0318181 15.3529582,13.3137085 12,13.3137085 Z M12,1 C14.7614237,1 17,3.23857625 17,6 C17,8.76142375 14.7614237,11 12,11 C9.23857625,11 7,8.76142375 7,6 C7,3.23857625 9.23857625,1 12,1 Z M12,3 C10.3431458,3 9,4.34314575 9,6 C9,7.65685425 10.3431458,9 12,9 C13.6568542,9 15,7.65685425 15,6 C15,4.34314575 13.6568542,3 12,3 Z" id="Combined-Shape"></path>
            </g>
        </g>
    </g>
</svg>
